<svg xmlns="http://www.w3.org/2000/svg" width="20.094" height="33.078"><path d="M14.719 28.438a.564.564 0 00.609-.563v-1.516a.563.563 0 00-.609-.562H13.25a.541.541 0 00-.562.562v1.516a.542.542 0 00.562.563zm-3.953 0a.573.573 0 00.609-.563v-1.516a.572.572 0 00-.609-.562H9.281a.541.541 0 00-.562.562v1.516a.542.542 0 00.562.563zm-3.969 0a.572.572 0 00.609-.563v-1.516A.571.571 0 006.8 25.8H5.328a.545.545 0 00-.578.562v1.516a.546.546 0 00.578.563zm3.969-12.563a.575.575 0 00.609-.578V13.8a.575.575 0 00-.609-.578H9.281a.545.545 0 00-.562.578v1.5a.545.545 0 00.562.578zm-3.969 0a.574.574 0 00.609-.578V13.8a.574.574 0 00-.609-.578H5.328a.549.549 0 00-.578.578v1.5a.549.549 0 00.578.578zm7.922-4.25a.563.563 0 00.609-.563V9.547a.566.566 0 00-.609-.578H13.25a.545.545 0 00-.562.578v1.515a.541.541 0 00.562.563zm-3.953 0a.572.572 0 00.609-.563V9.547a.575.575 0 00-.609-.578H9.281a.545.545 0 00-.562.578v1.515a.541.541 0 00.562.563zm-3.969 0a.571.571 0 00.609-.563V9.547a.574.574 0 00-.606-.578H5.328a.549.549 0 00-.578.578v1.515a.545.545 0 00.578.563zm7.922-4.234a.567.567 0 00.609-.579v-1.5a.567.567 0 00-.609-.578H13.25a.546.546 0 00-.562.578v1.5a.546.546 0 00.562.579zm-3.953 0a.576.576 0 00.609-.579v-1.5a.575.575 0 00-.609-.578H9.281a.546.546 0 00-.562.578v1.5a.546.546 0 00.562.579zm-3.969 0a.575.575 0 00.609-.579v-1.5a.575.575 0 00-.606-.578H5.328a.55.55 0 00-.578.578v1.5a.55.55 0 00.578.579zm8.734 23.171H4.578a1.817 1.817 0 01-2.062-1.953V4.469a1.817 1.817 0 012.062-1.953h10.953a1.813 1.813 0 012.047 1.953v24.14a1.813 1.813 0 01-2.047 1.953zm.313 2.516a3.931 3.931 0 004.25-4.062V4.062A3.931 3.931 0 0015.844 0H4.25A3.931 3.931 0 000 4.062v24.954a3.931 3.931 0 004.25 4.062z" fill="#1d252b"/></svg>