<svg xmlns="http://www.w3.org/2000/svg" width="36.969" height="28.984"><path d="M22.625 19.859a1.813 1.813 0 000-3.625h-8.266a1.813 1.813 0 000 3.625zm7.125.61a2.508 2.508 0 10-2.5-2.516 2.456 2.456 0 002.5 2.516zm-22.531 0a2.508 2.508 0 100-5.016 2.508 2.508 0 100 5.016zM29.641 9.844a21.333 21.333 0 00-1.594-4.688 2 2 0 00-1.672-1.109 65.5 65.5 0 00-7.475-.265h-.415a69.413 69.413 0 00-7.89.266 2 2 0 00-1.673 1.108 22.209 22.209 0 00-1.594 4.688c-.125.547.11.765.7.718 2.5-.156 5.469-.312 10.453-.312 5 0 7.969.156 10.469.312.581.047.816-.171.691-.718zM18.907 22.64h-.423c-5.312 0-12.125-.235-14.64-.547a1.8 1.8 0 01-1.8-2.047v-2.124A6.425 6.425 0 013.609 13.2L5.2 11.109A35.22 35.22 0 017.312 4.25a3.414 3.414 0 012.907-1.938c1-.109 4.172-.265 8.265-.265 4.11 0 7.328.156 8.235.265a3.508 3.508 0 012.953 1.938 34.21 34.21 0 012.094 6.859l1.609 2.091a6.479 6.479 0 011.547 4.719v2.125a1.788 1.788 0 01-1.8 2.047c-1.711.2-5.447.384-9.338.478l-.9.02a194.73 194.73 0 01-3.977.051zM4.7 28.984a2.031 2.031 0 002.078-2.046v-2.579c3.407.2 7.985.329 11.7.329s8.3-.126 11.719-.329v2.579a2.018 2.018 0 002.063 2.046h1.843a2.018 2.018 0 002.063-2.046v-3.954a3.248 3.248 0 00.8-2.312v-2.75A8.557 8.557 0 0035 11.938l-1.328-1.7a37.225 37.225 0 00-2.141-6.922A5.577 5.577 0 0027 .219C25.953.094 22.531 0 18.484 0c-4.031 0-7.453.109-8.5.219a5.493 5.493 0 00-4.531 3.093A36.945 36.945 0 003.3 10.234l-1.313 1.7A8.5 8.5 0 000 17.922v2.75a3.316 3.316 0 00.8 2.312v3.954a2.031 2.031 0 002.078 2.046z" fill="#1d252b"/></svg>