<svg xmlns="http://www.w3.org/2000/svg" width="39.016" height="31.219"><path d="M28.234 31.219a1.267 1.267 0 001.266-1.25 1.284 1.284 0 00-1.266-1.281H10.8a1.274 1.274 0 00-1.266 1.281 1.258 1.258 0 001.266 1.25zm6.735-7.8H4.062c-1.078 0-1.546-.438-1.546-1.547V4.047c0-1.094.468-1.531 1.546-1.531h30.907c1.062 0 1.531.437 1.531 1.531v17.828c0 1.109-.469 1.547-1.531 1.547zm.047 2.516c2.672 0 4-1.282 4-4.016V4.016c0-2.735-1.328-4.016-4-4.016h-31C1.344 0 0 1.281 0 4.016v17.906c0 2.734 1.344 4.016 4.016 4.016z" fill="#1d252b"/></svg>