<svg xmlns="http://www.w3.org/2000/svg" width="144.229" height="212.4"><path d="M86.954 103.164v26.245l21.5 7.969.465.14.5.168.512.186.6.235.688.286.566.25.4.184.629.3.438.22.683.36.471.259.24.136.735.431.25.152.506.317.514.334.521.351c.174.12.35.244.526.37l.531.387.267.2.536.416c.09.07.18.142.269.215l.54.444c.719.6 1.44 1.263 2.152 1.976l.533.545a32.517 32.517 0 013.78 4.791H13.319a33.065 33.065 0 017.543-8.182l.535-.406.531-.387c.176-.126.351-.25.526-.37l.521-.351.514-.334.506-.317.25-.152.492-.292.243-.139.477-.267c.078-.044.156-.086.234-.128l.458-.244.446-.228.431-.213.416-.2.4-.184.566-.25.688-.286.6-.235.513-.186.5-.168.47-.142 21.5-7.967v-26.239z" fill="#d4d7da"/><path d="M86.951 129.41l24.445 7.969.132.031.407.106.3.084.356.106.411.13.463.156c.163.056.335.116.514.181l.561.21c7.687 2.948 26.946 13.487 29.257 45.578l.092 1.516.164 4.124.149 4.663.029 1.8a8 8 0 01-5.63 7.77q-27.63 8.566-66.486 8.566t-66.484-8.565A8 8 0 010 196.067l.059-3.742A178.722 178.722 0 012.49 165.94c.071-.384.144-.767.222-1.148l.16-.76q.288-1.328.64-2.624l.206-.738.218-.732c2.675-8.744 7.739-16.126 16.615-19.511l.254-.138.5-.265c.082-.043.164-.086.246-.127l.483-.244.471-.229.457-.215.444-.2.636-.277.4-.169.573-.23.529-.2.327-.12.451-.159.521-.173.511-.159.509-.141 24.813-7.967c.948 3.693 4.329 5.877 7.824 7.165l.489.173c.325.113.651.217.975.315l.484.141.481.131.474.122.235.057.464.107.455.1.663.131.634.115.405.066.389.06.55.078.818.1.674.067.508.041.433.026c16.393 0 18.08-4.793 17.8-7.381l-.028-.207-.035-.2-.04-.185-.022-.088-.046-.166-.048-.152-.048-.138-.112-.274z" fill="#394494"/><path d="M86.954 118.7v-15.536H52.679v7.694c9.775 8.136 21.555 9.169 34.275 7.838" fill="#bec2c6"/><path d="M110.619 53.384c0-7.942-.337-15.869-.15-23.8.12-5.071.585-3.763-5.287-4.32-8.14-.773-10.86 14.346-11.432 20.889-.787 9.02 1.166 18.728 2.667 27.518.54 3.176.393 9.54 3.717 11.029 2.844 1.273 5.811-1.866 7.306-4.191 3.431-5.346 2.825-13.516 3.053-19.584.092-2.516.126-5.028.126-7.539" fill="#1d252b"/><path d="M107.1 98.513c-3.466 13.554-9.565 17.29-9.565 17.29l-8.183 1.6c-4.71-.6-12.831-2.513-12.831-2.513-18.691-6.355-24.106-8.072-27.006-15.176-.121-.3-14.732-51.019-14.732-51.019-2.393-26.11 24.932-31.543 29.057-32.223 4.08-.943 30.1-8.173 37.786 16.887 0 0 11.353 29.037 5.471 65.154" fill="#d4d7da"/><path d="M23.007 46.426c.331 7.147 2.539 13.242 5.093 20.173 4.359 11.826 4.359 11.826 8.223 18.624 0 0 6.019 9.356 13.773 15.771-2.247-8.9-2.876-15.541-4.922-22.374-2.461-8.2-1.74-19.188 1.913-27.606 0 0 2.069-5.605 10.565-7.205L31.973 24.728c-9.079 4.372-9.391 12.481-8.966 21.698z" fill="#1d252b"/><path d="M46.9 76.859s-4.621-10.066-11.883-4.1c0 0-3.306 2.58.767 9.318 0 0 5.913 9.684 13 4.319L46.9 76.859" fill="#d4d7da"/><path d="M46.172 53.384s.03 18.02 3.34 27.578l-3.511.7s-1.848-12.359-8.209-12.5l8.38-15.769" fill="#1d252b"/><path d="M115.112 14.789c29.21 29.75-59.184 29.448-59.184 29.448s-9.273 4.287-23.955-19.509c0 0-3.959-18.612 37.839-24.473 0 0 27.63-3.388 45.3 14.534" fill="#29323d"/></svg>