<svg xmlns="http://www.w3.org/2000/svg" width="29.672" height="34.313"><path d="M14.844 34.312c9.422 0 14.828-3.25 14.828-6.687 0-4.125-6.547-6.641-10.844-6.687v2.281c3.016.047 7.688 1.687 7.688 4.031 0 2.688-4.954 4.594-11.672 4.594-6.75 0-11.672-1.875-11.672-4.594 0-2.344 4.656-3.984 7.672-4.031v-2.281C6.547 20.984 0 23.5 0 27.625c0 3.437 5.422 6.687 14.844 6.687zM13.156 6.219a2.063 2.063 0 01-2-2.031 2.008 2.008 0 014.016 0 2.044 2.044 0 01-2.016 2.031zm1.672 22.375c.641 0 1.453-2.5 1.453-7.125v-9.875a5.859 5.859 0 10-2.906 0v9.875c0 4.609.825 7.125 1.453 7.125z" fill="#1d252b"/></svg>