<svg xmlns="http://www.w3.org/2000/svg" width="178" height="178"><path d="M55.842 2h66.316c18.722 0 25.511 1.949 32.356 5.61a38.161 38.161 0 0115.876 15.876c3.661 6.845 5.61 13.634 5.61 32.356v66.316c0 18.722-1.949 25.511-5.61 32.356a38.161 38.161 0 01-15.876 15.876c-6.845 3.661-13.634 5.61-32.356 5.61H55.842c-18.722 0-25.511-1.949-32.356-5.61A38.161 38.161 0 017.61 154.514C3.949 147.669 2 140.88 2 122.158V55.842C2 37.12 3.949 30.331 7.61 23.486A38.161 38.161 0 0123.486 7.61C30.331 3.949 37.12 2 55.842 2z" fill="none" stroke="#d4d7da" stroke-linecap="round" stroke-width="4" stroke-dasharray="5 10.15"/><path d="M48.857 24.5h80.286c8.47 0 11.541.882 14.637 2.538a17.268 17.268 0 017.182 7.182c1.656 3.1 2.538 6.167 2.538 14.637v80.286c0 8.47-.882 11.541-2.538 14.637a17.268 17.268 0 01-7.182 7.182c-3.1 1.656-6.167 2.538-14.637 2.538H48.857c-8.47 0-11.541-.882-14.637-2.538a17.268 17.268 0 01-7.182-7.182c-1.656-3.1-2.538-6.167-2.538-14.637V48.857c0-8.47.882-11.541 2.538-14.637a17.268 17.268 0 017.182-7.182c3.096-1.656 6.167-2.538 14.637-2.538z" fill="#1bcca8" fill-rule="evenodd"/><path d="M89.021 132.26a6.132 6.132 0 002.739-.872c23.24-13.447 30.92-18.511 30.92-32.788V67.057c0-4.441-1.66-5.893-5.478-7.429-5.894-2.366-18.967-7.222-24.9-9.255a10.178 10.178 0 00-3.279-.623 11.461 11.461 0 00-3.321.623c-2.741.888-7.044 2.449-11.457 4.1l-1.325.5a878.956 878.956 0 00-12.12 4.659c-3.818 1.494-5.478 2.988-5.478 7.429V98.6c0 14.277 7.761 19.216 30.92 32.788a6.129 6.129 0 002.779.872zm0-5.686a4.843 4.843 0 01-2.449-.955c-19.258-11.953-26.147-15.4-26.147-28.015V68.012c0-2.075.373-2.823 1.95-3.445 5.52-2.2 19.092-7.056 24.654-9.214a5.166 5.166 0 011.992-.5 6.861 6.861 0 011.992.5c5.275 2.062 17.825 6.739 23.819 8.926l.793.288c1.577.581 1.95 1.37 1.95 3.445V97.6c0 12.617-6.972 15.979-26.147 28.015a4.866 4.866 0 01-2.407.959zm10.666-16.934c2.947 0 4.4-1.452 4.4-4.69V88.1c0-3.113-1.328-4.566-4.026-4.649V78.1c0-7.346-4.441-12.243-11.04-12.243-6.641 0-11.082 4.9-11.082 12.243v5.354c-2.7.083-3.984 1.536-3.984 4.649v16.85c0 3.238 1.411 4.69 4.358 4.69zm-3.2-26.23H81.509v-5.6c0-5.105 2.988-8.467 7.512-8.467 4.482 0 7.47 3.362 7.47 8.467z" fill="#fff"/></svg>