<svg xmlns="http://www.w3.org/2000/svg" width="36.844" height="28.766"><path d="M11.25 22.891a1.452 1.452 0 001.531-1.5V18.5A1.443 1.443 0 0011.25 17H7.422a1.448 1.448 0 00-1.547 1.5v2.891a1.457 1.457 0 001.547 1.5zm20.656 3.359H4.938a2.18 2.18 0 01-2.422-2.45V10.875h31.812V23.8a2.187 2.187 0 01-2.422 2.45zm2.422-18.922H2.516V4.969a2.18 2.18 0 012.422-2.453h26.968a2.187 2.187 0 012.422 2.453zm-2.39 21.438c3.281 0 4.906-1.625 4.906-4.844V4.844C36.844 1.625 35.219 0 31.938 0H4.906C1.641 0 0 1.609 0 4.844v19.078c0 3.234 1.641 4.844 4.906 4.844z" fill="#1d252b"/></svg>