<svg xmlns="http://www.w3.org/2000/svg" width="37.25" height="31.484"><path d="M18.625 24.391a1.446 1.446 0 111.437-1.453 1.461 1.461 0 01-1.437 1.453zm15.422-5.329H3.188c-.469 0-.672-.187-.672-.671V4.062c0-1.109.468-1.546 1.546-1.546h29.126c1.062 0 1.546.437 1.546 1.546v14.329c0 .484-.218.671-.687.671zm-8.391 12.422a1.257 1.257 0 001.266-1.25 1.274 1.274 0 00-1.266-1.281h-1.765l-.438-3.015h9.781c2.672 0 4.016-1.282 4.016-4.016V4.016C37.25 1.281 35.906 0 33.234 0H4.016C1.344 0 0 1.281 0 4.016v17.906c0 2.734 1.344 4.016 4.016 4.016H13.8l-.453 3.015h-1.769a1.271 1.271 0 00-1.25 1.281 1.254 1.254 0 001.25 1.25z" fill="#1d252b"/></svg>