<svg xmlns="http://www.w3.org/2000/svg" viewBox="0 0 100 53.612" fill="#1e252c"><path d="M26.524,15.689,8.917,53.612H2.765l7.619-15.237L0,15.689H6.151l7.111,16.7,7.111-16.7Z"/><path d="M27.991,28.33c0-7.506,5.982-13.262,13.657-13.262a13.238,13.238,0,1,1,0,26.467C33.973,41.535,27.991,35.779,27.991,28.33Zm21.727-.057a8.071,8.071,0,1,0-16.14,0,8.072,8.072,0,1,0,16.14,0Z"/><path d="M87.416,28.217c0,7.675-5.982,13.318-13.827,13.318-7.731,0-13.544-5.418-13.544-13.488V.847L65.8,0V18.792a11.39,11.39,0,0,1,8.634-3.724A12.879,12.879,0,0,1,87.416,28.217Zm-5.587.056a7.943,7.943,0,0,0-8.014-8.183,8.076,8.076,0,0,0-8.183,8.3,7.9,7.9,0,0,0,8.014,8.126A8.027,8.027,0,0,0,81.829,28.273Z"/><path d="M92.551,6.377a3.726,3.726,0,1,1,3.724,3.612A3.626,3.626,0,0,1,92.551,6.377Zm.9,9.763,5.7-.9V40.914h-5.7Z"/></svg>