<svg xmlns="http://www.w3.org/2000/svg" viewBox="0 0 100 53.612" fill="#fff"><path d="M26.524 15.689L8.917 53.612H2.765l7.619-15.237L0 15.689h6.151l7.111 16.7 7.111-16.7zm1.467 12.641c0-7.506 5.982-13.262 13.657-13.262a13.238 13.238 0 110 26.467c-7.675 0-13.657-5.756-13.657-13.205zm21.727-.057a8.071 8.071 0 10-16.14 0 8.072 8.072 0 1016.14 0zm37.698-.056c0 7.675-5.982 13.318-13.827 13.318-7.731 0-13.544-5.418-13.544-13.488V.847L65.8 0v18.792a11.39 11.39 0 018.634-3.724 12.879 12.879 0 0112.982 13.149zm-5.587.056a7.943 7.943 0 00-8.014-8.183 8.076 8.076 0 00-8.183 8.3 7.9 7.9 0 008.014 8.126 8.027 8.027 0 008.183-8.243zM92.551 6.377a3.726 3.726 0 113.724 3.612 3.626 3.626 0 01-3.724-3.612zm.9 9.763l5.7-.9v25.674h-5.7z"/></svg>